<svg xmlns="http://www.w3.org/2000/svg" viewBox="0 0 64 64">
  <defs><linearGradient id="g" x1="0" y1="0" x2="1" y2="1">
    <stop offset="0" stop-color="#8E2DE2"/><stop offset="1" stop-color="#4A00E0"/></linearGradient></defs>
  <rect width="64" height="64" rx="14" fill="url(#g)"/>
  <g stroke="#ffffff" stroke-width="3">
    <rect x="18" y="18" width="28" height="28" rx="4" fill="none"/>
    <rect x="26" y="26" width="12" height="12" rx="2" fill="#ffffff" stroke="none"/>
  </g>
  <g stroke="#ffffff" stroke-width="3" stroke-linecap="round">
    <line x1="24" y1="12" x2="24" y2="18"/><line x1="32" y1="12" x2="32" y2="18"/><line x1="40" y1="12" x2="40" y2="18"/>
    <line x1="24" y1="46" x2="24" y2="52"/><line x1="32" y1="46" x2="32" y2="52"/><line x1="40" y1="46" x2="40" y2="52"/>
    <line x1="12" y1="24" x2="18" y2="24"/><line x1="12" y1="32" x2="18" y2="32"/><line x1="12" y1="40" x2="18" y2="40"/>
    <line x1="46" y1="24" x2="52" y2="24"/><line x1="46" y1="32" x2="52" y2="32"/><line x1="46" y1="40" x2="52" y2="40"/>
  </g>
</svg>